<?xml version="1.0" encoding="UTF-8"?><svg id="a" xmlns="http://www.w3.org/2000/svg" viewBox="0 0 32 32"><defs><style>.b{fill:none;stroke:#fff;stroke-linecap:round;stroke-linejoin:round;stroke-width:1.227px;}.c{fill:#9bcb3f;}.c,.d{stroke-width:0px;}.d{fill:#7b7b7b;}</style></defs><path class="d" d="M27.8938,21.8573v-.0055c2.2283-.0498,4.0203-1.875,4.0203-4.1238,0-2.2801-1.8413-4.1284-4.1127-4.1284-.6132,0-1.193.1384-1.7158.38-.0876-4.6563-3.8869-8.4045-8.5641-8.4045-3.7658,0-6.9618,2.4305-8.111,5.8075-.6399-.4807-1.4327-.769-2.2947-.769-2.1147,0-3.8289,1.7143-3.8289,3.8289,0,.3661.0545.719.1505,1.0543-.0612-.0035-.1219-.0093-.184-.0093-1.7493,0-3.1674,1.4261-3.1674,3.1852,0,1.7491,1.4024,3.1676,3.1379,3.1837v.0011h.0226c.0023,0,.0045.0003.0069.0003s.0045-.0003.0069-.0003"/><circle class="c" cx="16.0197" cy="21.211" r="7.2027"/><polyline class="b" points="14.0114 21.5129 15.3198 23.1896 17.9238 19.019"/></svg>